<?xml version="1.0" standalone="no"?>
<!DOCTYPE svg PUBLIC "-//W3C//DTD SVG 20010904//EN"
 "http://www.w3.org/TR/2001/REC-SVG-20010904/DTD/svg10.dtd">
<svg version="1.0" xmlns="http://www.w3.org/2000/svg"
 width="640.000000pt" height="640.000000pt" viewBox="0 0 640.000000 640.000000"
 preserveAspectRatio="xMidYMid meet">
<metadata>
Created by potrace 1.11, written by Peter Selinger 2001-2013
</metadata>
<g transform="translate(0.000000,640.000000) scale(0.100000,-0.100000)"
fill="#000000" stroke="none">
<path d="M2980 5199 c-373 -43 -748 -201 -1040 -436 -102 -82 -273 -260 -347
-360 -460 -620 -532 -1427 -189 -2108 87 -172 161 -284 281 -423 301 -349 709
-580 1182 -667 117 -22 431 -31 559 -16 332 39 630 148 900 329 495 332 818
862 885 1451 17 148 7 446 -20 586 -165 882 -883 1547 -1773 1644 -112 13
-329 12 -438 0z"/>
</g>
</svg>
